<?xml version="1.0" encoding="UTF-8"?>
<svg id="_レイヤー_2" xmlns="http://www.w3.org/2000/svg" version="1.1" viewBox="0 0 460.5 85.1">
  <!-- Generator: Adobe Illustrator 30.1.0, SVG Export Plug-In . SVG Version: 2.1.1 Build 136)  -->
  <defs>
    <style>
      .st0 {
        fill: #9d2124;
      }

      .st1 {
        fill: #fff;
      }
    </style>
  </defs>
  <g id="_レイヤー_1-2">
    <g>
      <path class="st1" d="M423.2,53.5h30.1s-.7,5.1-.7,5.1c-.1.7-.4,2.5-1.5,2.5h-32.4c-1.7,0-3.5-.2-5.2-.4-1.4-.2-3.9-1.7-4.5-2.9-.8-1.7-1.2-4.4-.9-6.1l3.8-17.6c1.2-5.8,1.7-14.4,9.4-15.4,2.2-.3,4.4-.6,6.6-.6h32.7s-1.5,7.6-1.5,7.6h-29c-1.1,0-3,.9-3.2,1.9l-1.9,8.3h30.6c0,0-1.8,7.5-1.8,7.5h-30.4s-1.7,8.1-1.7,8.1c-.1.5.6,1.9,1.5,1.9h0Z"/>
      <path class="st1" d="M101.1,34.5l28.2,43.5h-34.1c0,0-14.5-23-14.5-23l-33,21.4L0,85.1s23-10,23.5-10.4l30-15.3,47.6-25h0Z"/>
      <path class="st1" d="M317.5,46.2c-1.5-1.5-2.3-3.4-2.2-5.5l18-.2c1.2,0,2.9-1.4,3.2-2.4l2-8.4c.3-1.4-1-2.8-2.4-2.8h-19.2c-1.1,0-2.2,1.1-2.5,2.2l-6.8,32.2h-13.3s8-37.6,8-37.6c1.2-5.8,10.5-5.4,15.5-5.4h22.7c2.2,0,4.6.4,6.6,1,7.9,2.3,4.5,11.7,3.6,16.7-1.5,8.8-7.7,12.1-16.2,12l12.3,13.2h-14.2c-1.6,0-3-2.3-3.9-3.2l-11.1-11.7h0Z"/>
      <path class="st1" d="M259,53.5h30.1s-.7,5.1-.7,5.1c-.1.7-.4,2.5-1.5,2.5h-32.4c-1.7,0-3.4-.2-5.2-.4-1.4-.2-3.9-1.7-4.5-2.9-.8-1.7-1.2-4.4-.9-6.1l3.8-17.6c1.2-5.8,1.7-14.4,9.4-15.4,2.2-.3,4.4-.6,6.6-.6h32.7s-1.5,7.6-1.5,7.6h-29c-1.1,0-3,.9-3.2,1.9l-1.9,8.3h30.6c0,0-1.8,7.5-1.8,7.5h-30.4s-1.7,8.1-1.7,8.1c-.1.5.6,1.9,1.5,1.9h0Z"/>
      <path class="st1" d="M384,61.2h-32.4s2.7-7.6,2.7-7.6h30.2c1.8,0,3.2-1.3,3.5-2.8l1-4.4c.1-.5,0-1.8-.4-2.1-.3-.4-1.3-.8-2-.9h-14c-5.9,0-16.1-.1-15.8-8.4.2-4,.9-8.2,3-11.4,0,0,1-1.8,1.7-2.6,4.3-2.8,9.5-2.7,14.6-2.7h30.1l-1.8,7.6h-27.8c-3.5,0-5.5,2-5.8,5.6-.1,1.3-.6,3.7,1.6,3.8,8.5.5,15.5-.4,23.8,1,3.9.7,6.4,3.6,6.3,7.6,0,2.7-.7,5.2-1.3,8-.8,3.4-2.7,6.8-6.3,7.8-3.4,1-7.1,1.5-11,1.5h0Z"/>
      <path class="st1" d="M247.5,18.3l-32.8,42.9h-11.9c-1,0-2.6-.8-3.4-1.4l-13.2-41.6h15.9s8.9,31.9,8.9,31.9l24.2-31.9,12.4.2h0Z"/>
      <polygon class="st1" points="93.9 22.2 70.5 39.6 45.7 0 79.6 0 93.9 22.2"/>
      <path class="st1" d="M174.2,43.8h-33.9c-.4-1.2,1.3-8.8,2.2-9.9h33.8l-2,9.9h0Z"/>
      <path class="st0" d="M122.9.5L23.5,74.7l30-15.3,51.2-30c8.9-5.2,17.3-10.1,26.5-14.6,7.8-3.8,15.1-7.8,23.4-10.8l-53.4,30.5,3.2,5L165.4.5s-42.5,0-42.5,0Z"/>
    </g>
  </g>
</svg>