<?xml version="1.0" encoding="UTF-8"?>
<svg id="_レイヤー_2" data-name="レイヤー 2" xmlns="http://www.w3.org/2000/svg" viewBox="0 0 253.79 46.9">
  <defs>
    <style>
      .cls-1 {
        fill: #962324;
      }

      .cls-2 {
        fill: #040000;
      }

      .cls-3 {
        fill: #231815;
      }
    </style>
  </defs>
  <g id="_レイヤー_1-2" data-name="レイヤー 1">
    <g>
      <path class="cls-2" d="M233.22,27.77l16.58.03-.41,2.8c-.06.39-.24,1.41-.82,1.41h-17.85c-.91,0-1.9-.13-2.85-.24-.74-.09-2.16-.91-2.5-1.6-.45-.91-.67-2.44-.47-3.34l2.09-9.72c.65-3.21.92-7.94,5.16-8.5,1.2-.15,2.41-.31,3.62-.31l18.01.02-.85,4.16-15.96.02c-.63,0-1.65.49-1.77,1.05l-1.03,4.55,16.88.04-.99,4.11-16.75.03-.94,4.44c-.06.3.36,1.05.85,1.05h0Z"/>
      <path class="cls-2" d="M55.7,18.99l15.56,23.96-18.79-.03-7.97-12.65-18.18,11.81L0,46.9s12.65-5.5,12.95-5.72l16.51-8.44,26.26-13.75h0Z"/>
      <path class="cls-2" d="M175,23.73c-.8-.84-1.28-1.89-1.19-3.06l9.92-.08c.66,0,1.6-.77,1.74-1.34l1.1-4.64c.18-.77-.56-1.55-1.3-1.55l-10.6-.02c-.6,0-1.24.64-1.36,1.22l-3.77,17.75-7.35-.02,4.42-20.71c.68-3.19,5.78-2.99,8.54-2.98l12.52.03c1.22,0,2.52.19,3.63.52,4.33,1.27,2.47,6.46,2.01,9.22-.83,4.84-4.27,6.65-8.96,6.6l6.77,7.29-7.84.03c-.88,0-1.64-1.29-2.14-1.82l-6.13-6.43h0Z"/>
      <path class="cls-2" d="M142.73,27.77l16.58.03-.41,2.8c-.06.39-.24,1.41-.82,1.41h-17.85c-.91,0-1.9-.13-2.85-.24-.74-.09-2.16-.91-2.5-1.6-.45-.91-.67-2.44-.47-3.34l2.09-9.72c.65-3.21.92-7.94,5.16-8.5,1.2-.15,2.41-.31,3.62-.31l18.01.02-.85,4.16-15.96.02c-.63,0-1.65.49-1.77,1.05l-1.03,4.55,16.88.04-.99,4.11-16.75.03-.94,4.44c-.06.3.36,1.05.85,1.05h0Z"/>
      <path class="cls-2" d="M211.62,31.99l-17.84.03,1.49-4.21h16.66c.96,0,1.75-.71,1.95-1.56l.56-2.43c.06-.27-.04-.96-.19-1.15-.18-.23-.74-.47-1.08-.47l-7.71-.03c-3.25-.01-8.87-.03-8.69-4.63.09-2.19.51-4.5,1.68-6.31,0,0,.52-.99.91-1.42,2.36-1.53,5.25-1.49,8.04-1.49h16.57l-.99,4.2-15.34-.03c-1.92,0-3.03,1.15-3.19,3.1-.06.7-.34,2.04.88,2.12,4.71.3,8.54-.24,13.13.55,2.17.37,3.53,2,3.46,4.17-.05,1.48-.4,2.89-.73,4.38-.42,1.88-1.48,3.72-3.47,4.33-1.88.57-3.92.84-6.09.85h0Z"/>
      <path class="cls-2" d="M136.42,8.39l-18.06,23.65-6.58-.06c-.57,0-1.43-.37-1.87-.72l-7.29-22.94,8.74-.02,4.88,17.59,13.33-17.6,6.86.09h0Z"/>
      <polygon class="cls-2" points="51.73 12.24 38.87 21.84 25.17 .01 43.84 0 51.73 12.24"/>
      <path class="cls-2" d="M96,24.17h-18.71c-.21-.68.69-4.85,1.2-5.47h18.61l-1.1,5.47h0Z"/>
      <path class="cls-1" d="M67.75.28L12.95,41.18l16.51-8.44,28.2-16.51c4.88-2.86,9.55-5.56,14.61-8.06,4.28-2.12,8.33-4.32,12.91-5.97l-29.45,16.79,1.78,2.74L91.17.28s-23.42,0-23.42,0Z"/>
      <g>
        <path class="cls-3" d="M118.2,38.55c-.06.05-.12.09-.19.13-2.09,3.04-4.35,5-7.42,6.31-.06-.16-.16-.38-.29-.52,2.9-1.19,5.1-3.07,6.79-5.56h-3.36c-.85.85-1.87,1.66-2.95,2.32-.08-.13-.24-.31-.38-.43,1.64-.99,3.24-2.42,4.48-4.08l.8.25c-.07.09-.19.12-.32.12-.34.41-.68.81-1.03,1.18h3.31l.13-.06.42.32Z"/>
        <path class="cls-3" d="M143.91,38.05l-2.26,6.2h-.68l.22-.59h-5.18l-.22.61h-.66l2.26-6.22h6.51ZM141.42,43.03l1.58-4.35h-5.18l-1.58,4.35h5.18Z"/>
        <path class="cls-3" d="M168.87,37.73s-.1.08-.16.1c-.94,1.19-1.92,2.23-3.06,3.23.73.82,1.76,2.22,2.28,3.18l-.75.5c-.48-.96-1.47-2.39-2.15-3.16-1.19,1-3.12,2.38-4.77,3.16-.05-.14-.19-.38-.3-.51,3.12-1.43,6.15-4.09,7.74-6.13h-4.62l.23-.64h4.98l.14-.05.43.31Z"/>
        <path class="cls-3" d="M190.55,38.23c-.06.08-.15.13-.3.14-1.2,2.25-2.84,4.63-4.45,6.02-.12-.13-.33-.25-.51-.34,1.52-1.28,3.21-3.66,4.37-6.02l.88.2ZM193.05,44.33c.16-1.64.04-4.31-.3-6.05l.72-.29c.37,1.68.51,4.33.37,6.07l-.79.27ZM194.44,36.78c.29.39.54.97.64,1.39l-.45.26c-.11-.42-.38-1.03-.64-1.39l.45-.26ZM195.86,36.29c.28.4.54.96.65,1.38l-.47.27c-.11-.42-.38-1.02-.64-1.38l.46-.27Z"/>
        <path class="cls-3" d="M212.52,40.36h7.85l-.24.67h-7.49c-.09.09-.24.16-.37.18l.25-.85Z"/>
        <path class="cls-3" d="M245.55,37.73s-.1.08-.16.1c-.94,1.19-1.92,2.23-3.06,3.23.73.82,1.76,2.22,2.28,3.18l-.75.5c-.48-.96-1.47-2.39-2.15-3.16-1.19,1-3.12,2.38-4.77,3.16-.05-.14-.19-.38-.3-.51,3.12-1.43,6.15-4.09,7.74-6.13h-4.62l.23-.64h4.98l.14-.05.43.31Z"/>
      </g>
    </g>
  </g>
</svg>