<?xml version="1.0" encoding="UTF-8"?>
<svg id="_レイヤー_2" data-name="レイヤー 2" xmlns="http://www.w3.org/2000/svg" viewBox="0 0 460.47 85.09">
  <defs>
    <style>
      .cls-1 {
        fill: #040000;
      }

      .cls-2 {
        fill: #9d2124;
      }
    </style>
  </defs>
  <g id="_レイヤー_1-2" data-name="レイヤー 1">
    <g>
      <path class="cls-1" d="M423.16,53.51l30.09.05-.74,5.08c-.1.71-.43,2.55-1.49,2.55h-32.38c-1.66-.01-3.45-.23-5.17-.44-1.35-.16-3.92-1.66-4.54-2.9-.82-1.65-1.22-4.43-.85-6.06l3.79-17.63c1.18-5.82,1.67-14.41,9.36-15.42,2.17-.28,4.38-.56,6.57-.56l32.67.03-1.55,7.54-28.95.04c-1.15,0-2.99.89-3.21,1.9l-1.87,8.26,30.62.08-1.79,7.46-30.4.05-1.7,8.06c-.11.54.65,1.91,1.54,1.91Z"/>
      <path class="cls-1" d="M101.07,34.46l28.23,43.47-34.1-.06-14.46-22.95-32.99,21.42L0,85.09s22.95-9.98,23.49-10.37l29.95-15.31,47.64-24.95Z"/>
      <path class="cls-1" d="M317.52,46.17c-1.46-1.52-2.33-3.43-2.16-5.55l18-.15c1.2-.01,2.91-1.39,3.16-2.44l1.99-8.41c.33-1.4-1.01-2.82-2.36-2.82l-19.24-.03c-1.08,0-2.25,1.17-2.47,2.21l-6.84,32.2-13.34-.04,8.02-37.57c1.23-5.79,10.49-5.43,15.5-5.41l22.71.06c2.21,0,4.58.35,6.59.94,7.85,2.31,4.49,11.73,3.64,16.72-1.5,8.78-7.74,12.07-16.25,11.97l12.28,13.22-14.22.06c-1.6,0-2.97-2.34-3.89-3.31l-11.12-11.66Z"/>
      <path class="cls-1" d="M258.96,53.51l30.09.05-.74,5.08c-.1.71-.43,2.55-1.49,2.55h-32.38c-1.66-.01-3.45-.23-5.17-.44-1.35-.16-3.92-1.66-4.54-2.9-.82-1.65-1.22-4.43-.85-6.06l3.79-17.63c1.18-5.82,1.67-14.41,9.36-15.42,2.17-.28,4.38-.56,6.57-.56l32.67.03-1.55,7.54-28.95.04c-1.15,0-2.99.89-3.21,1.9l-1.87,8.26,30.62.08-1.79,7.46-30.4.05-1.7,8.06c-.11.54.65,1.91,1.54,1.91Z"/>
      <path class="cls-1" d="M383.97,61.16l-32.36.05,2.7-7.63h30.22c1.75,0,3.18-1.28,3.54-2.83l1.01-4.41c.11-.49-.07-1.75-.35-2.09-.33-.42-1.34-.85-1.96-.86l-13.98-.05c-5.9-.02-16.1-.06-15.77-8.4.16-3.97.92-8.16,3.04-11.44,0,0,.95-1.79,1.66-2.57,4.28-2.77,9.52-2.7,14.59-2.7h30.07s-1.8,7.62-1.8,7.62l-27.84-.06c-3.48,0-5.49,2.08-5.79,5.62-.11,1.27-.61,3.71,1.59,3.85,8.54.55,15.5-.43,23.83,1,3.93.68,6.41,3.63,6.27,7.56-.09,2.68-.73,5.24-1.33,7.95-.77,3.41-2.69,6.75-6.3,7.85-3.41,1.04-7.12,1.53-11.05,1.54Z"/>
      <path class="cls-1" d="M247.52,18.34l-32.77,42.91-11.94-.1c-1.03,0-2.6-.68-3.4-1.31l-13.22-41.62,15.85-.03,8.85,31.91,24.19-31.93,12.44.17Z"/>
      <polygon class="cls-1" points="93.86 22.2 70.52 39.62 45.67 .02 79.55 0 93.86 22.2"/>
      <path class="cls-1" d="M174.18,43.85l-33.94.02c-.39-1.25,1.26-8.82,2.18-9.95h33.76s-2,9.93-2,9.93Z"/>
      <path class="cls-2" d="M122.93.51L23.49,74.72l29.95-15.31,51.16-29.95c8.86-5.19,17.32-10.08,26.5-14.63,7.77-3.85,15.11-7.84,23.42-10.84l-53.44,30.47,3.23,4.97L165.42.51h-42.49Z"/>
    </g>
  </g>
</svg>